<svg xmlns="http://www.w3.org/2000/svg" viewBox="0 0 32 32"><defs><style>.cls-1{fill:#394b5d;}.cls-2{fill:#fff;}.cls-3{fill:#6bccb8;}</style></defs><title>Calc Value</title><g id="Layer_2" data-name="Layer 2"><g id="Layer_1-2" data-name="Layer 1"><rect class="cls-1" width="32" height="32" rx="2.56" ry="2.56"/><rect class="cls-2" x="9.83" y="18.34" width="2" height="5.32" transform="translate(-11.67 13.81) rotate(-45)"/><rect class="cls-2" x="8.17" y="19.99" width="5.32" height="2" transform="translate(-11.67 13.81) rotate(-45)"/><rect class="cls-3" x="9.83" y="8.52" width="2" height="4.95"/><rect class="cls-3" x="8.26" y="10.05" width="5.13" height="2"/><rect class="cls-2" x="18.06" y="9.99" width="5.4" height="2"/><rect class="cls-3" x="18.38" y="21.78" width="4.7" height="2"/><rect class="cls-3" x="18.38" y="18.71" width="4.7" height="2"/><path class="cls-2" d="M15.66,27.17a1,1,0,0,1-1-1v-20a1,1,0,0,1,2,0v20A1,1,0,0,1,15.66,27.17Z"/><path class="cls-2" d="M26,16.82H6a1,1,0,1,1,0-2H26a1,1,0,0,1,0,2Z"/><path class="cls-2" d="M23.39,27.17H8.61A3.61,3.61,0,0,1,5,23.56V8.78A3.61,3.61,0,0,1,8.61,5.17H23.39A3.61,3.61,0,0,1,27,8.78V23.56A3.61,3.61,0,0,1,23.39,27.17ZM8.61,7.17A1.61,1.61,0,0,0,7,8.78V23.56a1.61,1.61,0,0,0,1.61,1.61H23.39A1.61,1.61,0,0,0,25,23.56V8.78a1.61,1.61,0,0,0-1.61-1.61Z"/></g></g></svg>