<svg xmlns="http://www.w3.org/2000/svg" viewBox="0 0 32 32"><defs><style>.cls-1{fill:#394b5d;}.cls-2{fill:#6bccb8;}.cls-3{fill:#fff;}</style></defs><title>Features</title><g id="Layer_2" data-name="Layer 2"><g id="Layer_1-2" data-name="Layer 1"><rect class="cls-1" width="32" height="32" rx="2.56" ry="2.56"/><path class="cls-2" d="M23.46,10.36H14.29a1,1,0,0,1,0-2h9.17a1,1,0,0,1,0,2Z"/><path class="cls-3" d="M23.46,16.95H14.29a1,1,0,0,1,0-2h9.17a1,1,0,0,1,0,2Z"/><path class="cls-2" d="M23.46,23.53H14.29a1,1,0,0,1,0-2h9.17a1,1,0,0,1,0,2Z"/><path class="cls-2" d="M11.18,16.45H7.46a.5.5,0,1,1,0-1h3.72a.5.5,0,0,1,0,1Z"/><path class="cls-3" d="M8.39,18a.49.49,0,0,1-.26-.07A.5.5,0,0,1,8,17.24l1.86-3.1a.5.5,0,1,1,.86.51l-1.86,3.1A.5.5,0,0,1,8.39,18Z"/><path class="cls-2" d="M10.25,18a.5.5,0,0,1-.43-.24L8,14.65a.5.5,0,1,1,.86-.51l1.86,3.1a.5.5,0,0,1-.17.69A.49.49,0,0,1,10.25,18Z"/><path class="cls-2" d="M11.18,9.95H7.46a.5.5,0,1,1,0-1h3.72a.5.5,0,0,1,0,1Z"/><path class="cls-2" d="M8.39,11.5a.49.49,0,0,1-.26-.07A.5.5,0,0,1,8,10.74l1.86-3.1a.5.5,0,1,1,.86.51l-1.86,3.1A.5.5,0,0,1,8.39,11.5Z"/><path class="cls-3" d="M10.25,11.5a.5.5,0,0,1-.43-.24L8,8.15a.5.5,0,1,1,.86-.51l1.86,3.1a.5.5,0,0,1-.17.69A.49.49,0,0,1,10.25,11.5Z"/><path class="cls-3" d="M11.18,23H7.46a.5.5,0,1,1,0-1h3.72a.5.5,0,0,1,0,1Z"/><path class="cls-2" d="M8.39,24.58a.49.49,0,0,1-.26-.07A.5.5,0,0,1,8,23.83l1.86-3.1a.5.5,0,1,1,.86.51l-1.86,3.1A.5.5,0,0,1,8.39,24.58Z"/><path class="cls-2" d="M10.25,24.58a.5.5,0,0,1-.43-.24L8,21.24a.5.5,0,1,1,.86-.51l1.86,3.1a.5.5,0,0,1-.17.69A.49.49,0,0,1,10.25,24.58Z"/></g></g></svg>