<svg xmlns="http://www.w3.org/2000/svg" viewBox="0 0 32 32"><defs><style>.cls-1{fill:#394b5d;}.cls-2{fill:#fff;}.cls-3{fill:#6bccb8;}</style></defs><title>Filter Condition</title><g id="Layer_2" data-name="Layer 2"><g id="Layer_1-2" data-name="Layer 1"><rect class="cls-1" width="32" height="32" rx="2.56" ry="2.56"/><path class="cls-2" d="M20.25,9.92,16,15l-.75,5.71-.83-.58L13.59,15,10,9.92H20.25m4.26-2H6.15l2.21,3.15,3.33,4.75.75,4.67.13.84.69.49.83.58,2.7,1.89L17.23,21l.67-5.14,3.88-4.68,2.72-3.28Z"/><path class="cls-3" d="M20.25,9.92m-7,11.89.83.58,2.7,1.89L17.23,21l.67-5.14,3.88-4.68,2.72-3.28H22l-1.72,2L16,15l-.75,5.71-.83-.58Z"/></g></g></svg>