<svg xmlns="http://www.w3.org/2000/svg" viewBox="0 0 32 32"><defs><style>.cls-1{fill:#394b5d;}.cls-2{fill:#fff;}.cls-3{fill:#6bccb8;}</style></defs><title>PC Sync</title><g id="Layer_2" data-name="Layer 2"><g id="Layer_1-2" data-name="Layer 1"><rect class="cls-1" width="32" height="32" rx="2.56" ry="2.56"/><line class="cls-2" x1="12.06" y1="26.18" x2="18.55" y2="26.18"/><path class="cls-3" d="M18.55,27.18H12.06a1,1,0,0,1,0-2h6.49a1,1,0,0,1,0,2Z"/><line class="cls-2" x1="15.3" y1="25.04" x2="15.3" y2="25.81"/><rect class="cls-3" x="14.3" y="24.04" width="2" height="2.77"/><path class="cls-3" d="M26.34,10h-4a1,1,0,0,1,0-2H24.6l.33-2.32a1,1,0,0,1,2,.28Z"/><path class="cls-3" d="M15.19,11.53h-.11a1,1,0,0,1-.88-1.11,6.31,6.31,0,0,1,6.17-5.85,6.74,6.74,0,0,1,5.78,4,1,1,0,0,1-1.79.89,4.81,4.81,0,0,0-4-2.86,4.34,4.34,0,0,0-4.18,4.08A1,1,0,0,1,15.19,11.53Z"/><path class="cls-3" d="M14.86,17.66l-.22,0a1,1,0,0,1-.76-1.19l.79-3.55L18,12.75a1,1,0,0,1,.09,2l-1.82.08-.46,2.06A1,1,0,0,1,14.86,17.66Z"/><path class="cls-3" d="M20.85,17.79a6.79,6.79,0,0,1-6.26-3.48,1,1,0,0,1,1.79-.89,4.89,4.89,0,0,0,4.47,2.37,4.37,4.37,0,0,0,4.32-3.88,1,1,0,0,1,2,.26A6.35,6.35,0,0,1,20.85,17.79Z"/><path class="cls-2" d="M24.55,22.63H6.05a1,1,0,0,1-1-1V6.5a1,1,0,0,1,1-1h6.07a1,1,0,0,1,0,2H7.05V20.63h16.5V19a1,1,0,0,1,2,0v2.58A1,1,0,0,1,24.55,22.63Z"/></g></g></svg>