<svg xmlns="http://www.w3.org/2000/svg" viewBox="0 0 32 32"><defs><style>.cls-1{fill:#394b5d;}.cls-2{fill:#fff;}.cls-3{fill:#6bccb8;}</style></defs><title>Quote Template</title><g id="Layer_2" data-name="Layer 2"><g id="Layer_1-2" data-name="Layer 1"><rect class="cls-1" width="32" height="32" rx="2.56" ry="2.56"/><path class="cls-2" d="M19.15,26.81H6.7a1,1,0,0,1-1-1v-20a1,1,0,0,1,1-1H18.28a1,1,0,0,1,.71.29l5.79,5.79a1,1,0,0,1,.29.71v9.2a1,1,0,0,1-2,0V12l-5.2-5.2H7.7v18H19.15a1,1,0,0,1,0,2Z"/><path class="cls-2" d="M24.07,12.62H18.28a1,1,0,0,1-1-1V5.83a1,1,0,0,1,2,0v4.79h4.79a1,1,0,1,1,0,2Z"/><path class="cls-3" d="M15.28,13.27H10.93a1,1,0,0,1,0-2h4.35a1,1,0,1,1,0,2Z"/><polygon class="cls-3" points="26.31 24.8 24.84 24.8 24.84 23.27 23.34 23.27 23.34 24.8 21.78 24.8 21.78 26.3 23.34 26.3 23.34 27.91 24.84 27.91 24.84 26.3 26.31 26.3 26.31 24.8"/><path class="cls-3" d="M19.62,17.58h-8.7a1,1,0,0,1,0-2h8.7a1,1,0,1,1,0,2Z"/><path class="cls-3" d="M19.62,21.89h-8.7a1,1,0,0,1,0-2h8.7a1,1,0,1,1,0,2Z"/></g></g></svg>