<svg xmlns="http://www.w3.org/2000/svg" viewBox="0 0 32 32"><defs><style>.cls-1{fill:#394b5d;}.cls-2{fill:#fff;}.cls-3{fill:#6bccb8;}</style></defs><title>Quote</title><g id="Layer_2" data-name="Layer 2"><g id="Layer_1-2" data-name="Layer 1"><rect class="cls-1" width="32" height="32" rx="2.56" ry="2.56"/><path class="cls-2" d="M24.06,27.67H6a1,1,0,0,1-1-1V7.1a1,1,0,0,1,1-1H21.18a1,1,0,1,1,0,2H7V25.67H23.06V14.81a1,1,0,0,1,2,0V26.67A1,1,0,0,1,24.06,27.67Z"/><path class="cls-2" d="M27.36,6.63h0m-.79-1.69a.87.87,0,0,0-.63.27l-9,9-1.13,2.63,2.63-1.13,9-9c.7-.7-.08-1.78-.88-1.78Z"/><rect class="cls-3" x="24.57" y="6.04" width="2" height="2.13" transform="translate(2.47 20.15) rotate(-44.99)"/><path class="cls-3" d="M19.67,20H10a1,1,0,0,1,0-2h9.67a1,1,0,0,1,0,2Z"/><path class="cls-3" d="M16.86,11.81H10a1,1,0,0,1,0-2h6.86a1,1,0,0,1,0,2Z"/><path class="cls-3" d="M14.15,15.94H10a1,1,0,0,1,0-2h4.15a1,1,0,0,1,0,2Z"/><path class="cls-3" d="M19.67,23.67H16.3a1,1,0,1,1,0-2h3.37a1,1,0,0,1,0,2Z"/></g></g></svg>