<svg xmlns="http://www.w3.org/2000/svg" viewBox="0 0 32 32"><defs><style>.cls-1{fill:#394b5d;}.cls-2{fill:#6bccb8;}.cls-3{fill:#fff;}</style></defs><title>Rules</title><g id="Layer_2" data-name="Layer 2"><g id="Layer_1-2" data-name="Layer 1"><rect class="cls-1" width="32" height="32" rx="2.56" ry="2.56"/><rect class="cls-2" x="14.94" y="11.21" width="2" height="9.58"/><path class="cls-2" d="M25.3,19.84l-2-.11a2,2,0,0,0-.61-1.46,5.66,5.66,0,0,0-4.06-1.43h-5.3c-2.75,0-4.67,1.21-4.67,2.94h-2c0-2.91,2.75-4.94,6.67-4.94h5.3a7.55,7.55,0,0,1,5.52,2.05A4,4,0,0,1,25.3,19.84Z"/><path class="cls-3" d="M9.43,20.79v3.38H6.05V20.79H9.43m2-2H4.05v7.38h7.38V18.79Z"/><path class="cls-3" d="M17.63,20.79v3.38H14.25V20.79h3.38m2-2H12.25v7.38h7.38V18.79Z"/><path class="cls-3" d="M17.63,7.83v3.38H14.25V7.83h3.38m2-2H12.25v7.38h7.38V5.83Z"/><path class="cls-3" d="M25.83,20.79v3.38H22.45V20.79h3.38m2-2H20.45v7.38h7.38V18.79Z"/></g></g></svg>