<svg xmlns="http://www.w3.org/2000/svg" viewBox="0 0 32 32"><defs><style>.cls-1{fill:#394b5d;}.cls-2{fill:#fff;}.cls-3{fill:none;stroke:#fff;stroke-linecap:round;stroke-linejoin:round;stroke-width:2px;}.cls-4{fill:#6bccb8;}</style></defs><title>Zuora Config</title><g id="Layer_2" data-name="Layer 2"><g id="Layer_1-2" data-name="Layer 1"><rect class="cls-1" width="32" height="32" rx="2.56" ry="2.56"/><path class="cls-2" d="M14.25,25.71H7.16a1,1,0,0,1-1-1v-18a1,1,0,0,1,1-1H24.53a1,1,0,0,1,1,1v9a1,1,0,0,1-2,0v-8H8.16v16h6.09a1,1,0,0,1,0,2Z"/><path class="cls-3" d="M18.74,6.72"/><path class="cls-4" d="M20.42,11.72h-9.5a1,1,0,1,1,0-2h9.5a1,1,0,1,1,0,2Z"/><path class="cls-4" d="M16.5,15.6H10.92a1,1,0,1,1,0-2H16.5a1,1,0,0,1,0,2Z"/><path class="cls-4" d="M13.39,19.47H10.92a1,1,0,1,1,0-2h2.47a1,1,0,0,1,0,2Z"/><path class="cls-2" d="M25.15,22.33V21.08H23.86a3.46,3.46,0,0,0-.4-1l.91-.91-1.12-1.12-.91.91a4,4,0,0,0-1-.4V17.32H19.82V18.6a4,4,0,0,0-1,.4L18,18.09l-1.12,1.12.91.91a4.27,4.27,0,0,0-.4,1H16.06v1.25h1.28a3.63,3.63,0,0,0,.4,1.28l-.91.91L18,25.63l.91-.91a10.15,10.15,0,0,0,1,.4V26.4h1.57V25.12a10.21,10.21,0,0,0,1-.4l.91.91,1.12-1.12-.91-.91a2.43,2.43,0,0,0,.4-1.28ZM20.6,23.5a1.64,1.64,0,1,1,1.64-1.64A1.64,1.64,0,0,1,20.6,23.5Z"/></g></g></svg>